  0
SECTION
  2
HEADER
  9
$ACADVER
  1
AC1009
  9
$EXTMIN
 10
0.0
 20
0.0
 30
0.0
  9
$EXTMAX
 10
1000.0
 20
1000.0
 30
0.0
  9
$FILLMODE
 70
 0
  9
$SPLFRAME
 70
 1
  0
ENDSEC
  0
SECTION
  2
TABLES
  0
TABLE
  2
LAYER
 70
1
  0
LAYER
  2
0
 70
     0
 62
     7
  6
CONTINUOUS
  0
ENDTAB
  0
ENDSEC
  0
SECTION
  2
ENTITIES
  0
LINE
  8
0
 62
     0
 10
85.2964
 20
107.502
 30
0.0
 11
85.532
 21
107.492
 31
0.0
  0
LINE
  8
0
 62
     0
 10
85.532
 20
107.492
 30
0.0
 11
85.7649
 21
107.466
 31
0.0
  0
LINE
  8
0
 62
     0
 10
85.7649
 20
107.466
 30
0.0
 11
85.9966
 21
107.419
 31
0.0
  0
LINE
  8
0
 62
     0
 10
85.9966
 20
107.419
 30
0.0
 11
86.2238
 21
107.356
 31
0.0
  0
LINE
  8
0
 62
     0
 10
86.2238
 20
107.356
 30
0.0
 11
86.4443
 21
107.273
 31
0.0
  0
LINE
  8
0
 62
     0
 10
86.4443
 20
107.273
 30
0.0
 11
86.6581
 21
107.176
 31
0.0
  0
LINE
  8
0
 62
     0
 10
86.6581
 20
107.176
 30
0.0
 11
86.8634
 21
107.06
 31
0.0
  0
LINE
  8
0
 62
     0
 10
86.8634
 20
107.06
 30
0.0
 11
87.0589
 21
106.93
 31
0.0
  0
LINE
  8
0
 62
     0
 10
87.0589
 20
106.93
 30
0.0
 11
87.2451
 21
106.784
 31
0.0
  0
LINE
  8
0
 62
     0
 10
87.2451
 20
106.784
 30
0.0
 11
87.4173
 21
106.624
 31
0.0
  0
LINE
  8
0
 62
     0
 10
87.4173
 20
106.624
 30
0.0
 11
87.5771
 21
106.451
 31
0.0
  0
LINE
  8
0
 62
     0
 10
87.5771
 20
106.451
 30
0.0
 11
87.7231
 21
106.266
 31
0.0
  0
LINE
  8
0
 62
     0
 10
87.7231
 20
106.266
 30
0.0
 11
87.854
 21
106.07
 31
0.0
  0
LINE
  8
0
 62
     0
 10
87.854
 20
106.07
 30
0.0
 11
87.9697
 21
105.864
 31
0.0
  0
LINE
  8
0
 62
     0
 10
87.9697
 20
105.864
 30
0.0
 11
88.0678
 21
105.65
 31
0.0
  0
LINE
  8
0
 62
     0
 10
88.0678
 20
105.65
 30
0.0
 11
88.1489
 21
105.429
 31
0.0
  0
LINE
  8
0
 62
     0
 10
88.1489
 20
105.429
 30
0.0
 11
88.2138
 21
105.202
 31
0.0
  0
LINE
  8
0
 62
     0
 10
88.2138
 20
105.202
 30
0.0
 11
88.2594
 21
104.972
 31
0.0
  0
LINE
  8
0
 62
     0
 10
88.2594
 20
104.972
 30
0.0
 11
88.2869
 21
104.738
 31
0.0
  0
LINE
  8
0
 62
     0
 10
88.2869
 20
104.738
 30
0.0
 11
88.2964
 21
104.502
 31
0.0
  0
LINE
  8
0
 62
     0
 10
88.2964
 20
104.502
 30
0.0
 11
88.2964
 21
3.25079
 31
0.0
  0
LINE
  8
0
 62
     0
 10
88.2964
 20
3.25079
 30
0.0
 11
88.2869
 21
3.01515
 31
0.0
  0
LINE
  8
0
 62
     0
 10
88.2869
 20
3.01515
 30
0.0
 11
88.2594
 21
2.78226
 31
0.0
  0
LINE
  8
0
 62
     0
 10
88.2594
 20
2.78226
 30
0.0
 11
88.2138
 21
2.55075
 31
0.0
  0
LINE
  8
0
 62
     0
 10
88.2138
 20
2.55075
 30
0.0
 11
88.1489
 21
2.32337
 31
0.0
  0
LINE
  8
0
 62
     0
 10
88.1489
 20
2.32337
 30
0.0
 11
88.0678
 21
2.10289
 31
0.0
  0
LINE
  8
0
 62
     0
 10
88.0678
 20
2.10289
 30
0.0
 11
87.9697
 21
1.88929
 31
0.0
  0
LINE
  8
0
 62
     0
 10
87.9697
 20
1.88929
 30
0.0
 11
87.854
 21
1.68396
 31
0.0
  0
LINE
  8
0
 62
     0
 10
87.854
 20
1.68396
 30
0.0
 11
87.7231
 21
1.48828
 31
0.0
  0
LINE
  8
0
 62
     0
 10
87.7231
 20
1.48828
 30
0.0
 11
87.5771
 21
1.30225
 31
0.0
  0
LINE
  8
0
 62
     0
 10
87.5771
 20
1.30225
 30
0.0
 11
87.4173
 21
1.12999
 31
0.0
  0
LINE
  8
0
 62
     0
 10
87.4173
 20
1.12999
 30
0.0
 11
87.2451
 21
0.970139
 31
0.0
  0
LINE
  8
0
 62
     0
 10
87.2451
 20
0.970139
 30
0.0
 11
87.0589
 21
0.824068
 31
0.0
  0
LINE
  8
0
 62
     0
 10
87.0589
 20
0.824068
 30
0.0
 11
86.8634
 21
0.693152
 31
0.0
  0
LINE
  8
0
 62
     0
 10
86.8634
 20
0.693152
 30
0.0
 11
86.6581
 21
0.577398
 31
0.0
  0
LINE
  8
0
 62
     0
 10
86.6581
 20
0.577398
 30
0.0
 11
86.4443
 21
0.479559
 31
0.0
  0
LINE
  8
0
 62
     0
 10
86.4443
 20
0.479559
 30
0.0
 11
86.2238
 21
0.398254
 31
0.0
  0
LINE
  8
0
 62
     0
 10
86.2238
 20
0.398254
 30
0.0
 11
85.9966
 21
0.333485
 31
0.0
  0
LINE
  8
0
 62
     0
 10
85.9966
 20
0.333485
 30
0.0
 11
85.7649
 21
0.28801
 31
0.0
  0
LINE
  8
0
 62
     0
 10
85.7649
 20
0.28801
 30
0.0
 11
85.532
 21
0.260449
 31
0.0
  0
LINE
  8
0
 62
     0
 10
85.532
 20
0.260449
 30
0.0
 11
85.295
 21
0.250803
 31
0.0
  0
LINE
  8
0
 62
     0
 10
85.295
 20
0.250803
 30
0.0
 11
3.09507
 21
0.250803
 31
0.0
  0
LINE
  8
0
 62
     0
 10
3.09507
 20
0.250803
 30
0.0
 11
2.85943
 21
0.260449
 31
0.0
  0
LINE
  8
0
 62
     0
 10
2.85943
 20
0.260449
 30
0.0
 11
2.62516
 21
0.28801
 31
0.0
  0
LINE
  8
0
 62
     0
 10
2.62516
 20
0.28801
 30
0.0
 11
2.39503
 21
0.333485
 31
0.0
  0
LINE
  8
0
 62
     0
 10
2.39503
 20
0.333485
 30
0.0
 11
2.16765
 21
0.398254
 31
0.0
  0
LINE
  8
0
 62
     0
 10
2.16765
 20
0.398254
 30
0.0
 11
1.94717
 21
0.479559
 31
0.0
  0
LINE
  8
0
 62
     0
 10
1.94717
 20
0.479559
 30
0.0
 11
1.73357
 21
0.577398
 31
0.0
  0
LINE
  8
0
 62
     0
 10
1.73357
 20
0.577398
 30
0.0
 11
1.52687
 21
0.693152
 31
0.0
  0
LINE
  8
0
 62
     0
 10
1.52687
 20
0.693152
 30
0.0
 11
1.33119
 21
0.824068
 31
0.0
  0
LINE
  8
0
 62
     0
 10
1.33119
 20
0.824068
 30
0.0
 11
1.14653
 21
0.970139
 31
0.0
  0
LINE
  8
0
 62
     0
 10
1.14653
 20
0.970139
 30
0.0
 11
0.972894
 21
1.12999
 31
0.0
  0
LINE
  8
0
 62
     0
 10
0.972894
 20
1.12999
 30
0.0
 11
0.813043
 21
1.30225
 31
0.0
  0
LINE
  8
0
 62
     0
 10
0.813043
 20
1.30225
 30
0.0
 11
0.666972
 21
1.48828
 31
0.0
  0
LINE
  8
0
 62
     0
 10
0.666972
 20
1.48828
 30
0.0
 11
0.537436
 21
1.68396
 31
0.0
  0
LINE
  8
0
 62
     0
 10
0.537436
 20
1.68396
 30
0.0
 11
0.421679
 21
1.88929
 31
0.0
  0
LINE
  8
0
 62
     0
 10
0.421679
 20
1.88929
 30
0.0
 11
0.323839
 21
2.10289
 31
0.0
  0
LINE
  8
0
 62
     0
 10
0.323839
 20
2.10289
 30
0.0
 11
0.241157
 21
2.32337
 31
0.0
  0
LINE
  8
0
 62
     0
 10
0.241157
 20
2.32337
 30
0.0
 11
0.177767
 21
2.55075
 31
0.0
  0
LINE
  8
0
 62
     0
 10
0.177767
 20
2.55075
 30
0.0
 11
0.130914
 21
2.78226
 31
0.0
  0
LINE
  8
0
 62
     0
 10
0.130914
 20
2.78226
 30
0.0
 11
0.104731
 21
3.01515
 31
0.0
  0
LINE
  8
0
 62
     0
 10
0.104731
 20
3.01515
 30
0.0
 11
0.0950846
 21
3.25079
 31
0.0
  0
LINE
  8
0
 62
     0
 10
0.0950846
 20
3.25079
 30
0.0
 11
0.0950846
 21
104.502
 31
0.0
  0
LINE
  8
0
 62
     0
 10
0.0950846
 20
104.502
 30
0.0
 11
0.104731
 21
104.738
 31
0.0
  0
LINE
  8
0
 62
     0
 10
0.104731
 20
104.738
 30
0.0
 11
0.130914
 21
104.972
 31
0.0
  0
LINE
  8
0
 62
     0
 10
0.130914
 20
104.972
 30
0.0
 11
0.177767
 21
105.202
 31
0.0
  0
LINE
  8
0
 62
     0
 10
0.177767
 20
105.202
 30
0.0
 11
0.241157
 21
105.429
 31
0.0
  0
LINE
  8
0
 62
     0
 10
0.241157
 20
105.429
 30
0.0
 11
0.323839
 21
105.65
 31
0.0
  0
LINE
  8
0
 62
     0
 10
0.323839
 20
105.65
 30
0.0
 11
0.421679
 21
105.864
 31
0.0
  0
LINE
  8
0
 62
     0
 10
0.421679
 20
105.864
 30
0.0
 11
0.537436
 21
106.07
 31
0.0
  0
LINE
  8
0
 62
     0
 10
0.537436
 20
106.07
 30
0.0
 11
0.666972
 21
106.266
 31
0.0
  0
LINE
  8
0
 62
     0
 10
0.666972
 20
106.266
 30
0.0
 11
0.813043
 21
106.451
 31
0.0
  0
LINE
  8
0
 62
     0
 10
0.813043
 20
106.451
 30
0.0
 11
0.972894
 21
106.624
 31
0.0
  0
LINE
  8
0
 62
     0
 10
0.972894
 20
106.624
 30
0.0
 11
1.14653
 21
106.784
 31
0.0
  0
LINE
  8
0
 62
     0
 10
1.14653
 20
106.784
 30
0.0
 11
1.33119
 21
106.93
 31
0.0
  0
LINE
  8
0
 62
     0
 10
1.33119
 20
106.93
 30
0.0
 11
1.52687
 21
107.06
 31
0.0
  0
LINE
  8
0
 62
     0
 10
1.52687
 20
107.06
 30
0.0
 11
1.73357
 21
107.176
 31
0.0
  0
LINE
  8
0
 62
     0
 10
1.73357
 20
107.176
 30
0.0
 11
1.94717
 21
107.273
 31
0.0
  0
LINE
  8
0
 62
     0
 10
1.94717
 20
107.273
 30
0.0
 11
2.16765
 21
107.356
 31
0.0
  0
LINE
  8
0
 62
     0
 10
2.16765
 20
107.356
 30
0.0
 11
2.39503
 21
107.419
 31
0.0
  0
LINE
  8
0
 62
     0
 10
2.39503
 20
107.419
 30
0.0
 11
2.62516
 21
107.466
 31
0.0
  0
LINE
  8
0
 62
     0
 10
2.62516
 20
107.466
 30
0.0
 11
2.85943
 21
107.492
 31
0.0
  0
LINE
  8
0
 62
     0
 10
2.85943
 20
107.492
 30
0.0
 11
3.09507
 21
107.502
 31
0.0
  0
LINE
  8
0
 62
     0
 10
3.09507
 20
107.502
 30
0.0
 11
85.2964
 21
107.502
 31
0.0
  0
LINE
  8
0
 62
     0
 10
2.67753
 20
4.53513
 30
0.0
 11
2.30132
 21
4.34358
 31
0.0
  0
LINE
  8
0
 62
     0
 10
2.30132
 20
4.34358
 30
0.0
 11
2.00229
 21
4.04453
 31
0.0
  0
LINE
  8
0
 62
     0
 10
2.00229
 20
4.04453
 30
0.0
 11
1.81212
 21
3.66832
 31
0.0
  0
LINE
  8
0
 62
     0
 10
1.81212
 20
3.66832
 30
0.0
 11
1.7446
 21
3.25079
 31
0.0
  0
LINE
  8
0
 62
     0
 10
1.7446
 20
3.25079
 30
0.0
 11
1.81212
 21
2.83325
 31
0.0
  0
LINE
  8
0
 62
     0
 10
1.81212
 20
2.83325
 30
0.0
 11
2.00229
 21
2.45842
 31
0.0
  0
LINE
  8
0
 62
     0
 10
2.00229
 20
2.45842
 30
0.0
 11
2.30132
 21
2.15938
 31
0.0
  0
LINE
  8
0
 62
     0
 10
2.30132
 20
2.15938
 30
0.0
 11
2.67753
 21
1.96784
 31
0.0
  0
LINE
  8
0
 62
     0
 10
2.67753
 20
1.96784
 30
0.0
 11
3.09507
 21
1.90032
 31
0.0
  0
LINE
  8
0
 62
     0
 10
3.09507
 20
1.90032
 30
0.0
 11
3.51262
 21
1.96784
 31
0.0
  0
LINE
  8
0
 62
     0
 10
3.51262
 20
1.96784
 30
0.0
 11
3.88881
 21
2.15938
 31
0.0
  0
LINE
  8
0
 62
     0
 10
3.88881
 20
2.15938
 30
0.0
 11
4.18786
 21
2.45842
 31
0.0
  0
LINE
  8
0
 62
     0
 10
4.18786
 20
2.45842
 30
0.0
 11
4.37804
 21
2.83325
 31
0.0
  0
LINE
  8
0
 62
     0
 10
4.37804
 20
2.83325
 30
0.0
 11
4.44419
 21
3.25079
 31
0.0
  0
LINE
  8
0
 62
     0
 10
4.44419
 20
3.25079
 30
0.0
 11
4.37804
 21
3.66832
 31
0.0
  0
LINE
  8
0
 62
     0
 10
4.37804
 20
3.66832
 30
0.0
 11
4.18786
 21
4.04453
 31
0.0
  0
LINE
  8
0
 62
     0
 10
4.18786
 20
4.04453
 30
0.0
 11
3.88881
 21
4.34358
 31
0.0
  0
LINE
  8
0
 62
     0
 10
3.88881
 20
4.34358
 30
0.0
 11
3.51262
 21
4.53513
 31
0.0
  0
LINE
  8
0
 62
     0
 10
3.51262
 20
4.53513
 30
0.0
 11
3.09507
 21
4.60128
 31
0.0
  0
LINE
  8
0
 62
     0
 10
3.09507
 20
4.60128
 30
0.0
 11
2.67753
 21
4.53513
 31
0.0
  0
LINE
  8
0
 62
     0
 10
84.879
 20
4.53513
 30
0.0
 11
84.5026
 21
4.34358
 31
0.0
  0
LINE
  8
0
 62
     0
 10
84.5026
 20
4.34358
 30
0.0
 11
84.2038
 21
4.04453
 31
0.0
  0
LINE
  8
0
 62
     0
 10
84.2038
 20
4.04453
 30
0.0
 11
84.0123
 21
3.66832
 31
0.0
  0
LINE
  8
0
 62
     0
 10
84.0123
 20
3.66832
 30
0.0
 11
83.9459
 21
3.25079
 31
0.0
  0
LINE
  8
0
 62
     0
 10
83.9459
 20
3.25079
 30
0.0
 11
84.0123
 21
2.83325
 31
0.0
  0
LINE
  8
0
 62
     0
 10
84.0123
 20
2.83325
 30
0.0
 11
84.2038
 21
2.45842
 31
0.0
  0
LINE
  8
0
 62
     0
 10
84.2038
 20
2.45842
 30
0.0
 11
84.5026
 21
2.15938
 31
0.0
  0
LINE
  8
0
 62
     0
 10
84.5026
 20
2.15938
 30
0.0
 11
84.879
 21
1.96784
 31
0.0
  0
LINE
  8
0
 62
     0
 10
84.879
 20
1.96784
 30
0.0
 11
85.2964
 21
1.90032
 31
0.0
  0
LINE
  8
0
 62
     0
 10
85.2964
 20
1.90032
 30
0.0
 11
85.7141
 21
1.96784
 31
0.0
  0
LINE
  8
0
 62
     0
 10
85.7141
 20
1.96784
 30
0.0
 11
86.0887
 21
2.15938
 31
0.0
  0
LINE
  8
0
 62
     0
 10
86.0887
 20
2.15938
 30
0.0
 11
86.3879
 21
2.45842
 31
0.0
  0
LINE
  8
0
 62
     0
 10
86.3879
 20
2.45842
 30
0.0
 11
86.5794
 21
2.83325
 31
0.0
  0
LINE
  8
0
 62
     0
 10
86.5794
 20
2.83325
 30
0.0
 11
86.6468
 21
3.25079
 31
0.0
  0
LINE
  8
0
 62
     0
 10
86.6468
 20
3.25079
 30
0.0
 11
86.5794
 21
3.66832
 31
0.0
  0
LINE
  8
0
 62
     0
 10
86.5794
 20
3.66832
 30
0.0
 11
86.3879
 21
4.04453
 31
0.0
  0
LINE
  8
0
 62
     0
 10
86.3879
 20
4.04453
 30
0.0
 11
86.0887
 21
4.34358
 31
0.0
  0
LINE
  8
0
 62
     0
 10
86.0887
 20
4.34358
 30
0.0
 11
85.7141
 21
4.53513
 31
0.0
  0
LINE
  8
0
 62
     0
 10
85.7141
 20
4.53513
 30
0.0
 11
85.2964
 21
4.60128
 31
0.0
  0
LINE
  8
0
 62
     0
 10
85.2964
 20
4.60128
 30
0.0
 11
84.879
 21
4.53513
 31
0.0
  0
LINE
  8
0
 62
     0
 10
6.09367
 20
101.504
 30
0.0
 11
82.2964
 21
101.504
 31
0.0
  0
LINE
  8
0
 62
     0
 10
82.2964
 20
101.504
 30
0.0
 11
82.2964
 21
6.2508
 31
0.0
  0
LINE
  8
0
 62
     0
 10
82.2964
 20
6.2508
 30
0.0
 11
6.09367
 21
6.2508
 31
0.0
  0
LINE
  8
0
 62
     0
 10
6.09367
 20
6.2508
 30
0.0
 11
6.09367
 21
101.504
 31
0.0
  0
LINE
  8
0
 62
     0
 10
2.67753
 20
55.16
 30
0.0
 11
2.30132
 21
54.9684
 31
0.0
  0
LINE
  8
0
 62
     0
 10
2.30132
 20
54.9684
 30
0.0
 11
2.00229
 21
54.671
 31
0.0
  0
LINE
  8
0
 62
     0
 10
2.00229
 20
54.671
 30
0.0
 11
1.81212
 21
54.2932
 31
0.0
  0
LINE
  8
0
 62
     0
 10
1.81212
 20
54.2932
 30
0.0
 11
1.7446
 21
53.8773
 31
0.0
  0
LINE
  8
0
 62
     0
 10
1.7446
 20
53.8773
 30
0.0
 11
1.81212
 21
53.4596
 31
0.0
  0
LINE
  8
0
 62
     0
 10
1.81212
 20
53.4596
 30
0.0
 11
2.00229
 21
53.0835
 31
0.0
  0
LINE
  8
0
 62
     0
 10
2.00229
 20
53.0835
 30
0.0
 11
2.30132
 21
52.7844
 31
0.0
  0
LINE
  8
0
 62
     0
 10
2.30132
 20
52.7844
 30
0.0
 11
2.67753
 21
52.5928
 31
0.0
  0
LINE
  8
0
 62
     0
 10
2.67753
 20
52.5928
 30
0.0
 11
3.09507
 21
52.5268
 31
0.0
  0
LINE
  8
0
 62
     0
 10
3.09507
 20
52.5268
 30
0.0
 11
3.51262
 21
52.5928
 31
0.0
  0
LINE
  8
0
 62
     0
 10
3.51262
 20
52.5928
 30
0.0
 11
3.88881
 21
52.7844
 31
0.0
  0
LINE
  8
0
 62
     0
 10
3.88881
 20
52.7844
 30
0.0
 11
4.18786
 21
53.0835
 31
0.0
  0
LINE
  8
0
 62
     0
 10
4.18786
 20
53.0835
 30
0.0
 11
4.37804
 21
53.4596
 31
0.0
  0
LINE
  8
0
 62
     0
 10
4.37804
 20
53.4596
 30
0.0
 11
4.44419
 21
53.8773
 31
0.0
  0
LINE
  8
0
 62
     0
 10
4.44419
 20
53.8773
 30
0.0
 11
4.37804
 21
54.2932
 31
0.0
  0
LINE
  8
0
 62
     0
 10
4.37804
 20
54.2932
 30
0.0
 11
4.18786
 21
54.671
 31
0.0
  0
LINE
  8
0
 62
     0
 10
4.18786
 20
54.671
 30
0.0
 11
3.88881
 21
54.9684
 31
0.0
  0
LINE
  8
0
 62
     0
 10
3.88881
 20
54.9684
 30
0.0
 11
3.51262
 21
55.16
 31
0.0
  0
LINE
  8
0
 62
     0
 10
3.51262
 20
55.16
 30
0.0
 11
3.09507
 21
55.2263
 31
0.0
  0
LINE
  8
0
 62
     0
 10
3.09507
 20
55.2263
 30
0.0
 11
2.67753
 21
55.16
 31
0.0
  0
LINE
  8
0
 62
     0
 10
84.879
 20
55.16
 30
0.0
 11
84.5026
 21
54.9684
 31
0.0
  0
LINE
  8
0
 62
     0
 10
84.5026
 20
54.9684
 30
0.0
 11
84.2038
 21
54.671
 31
0.0
  0
LINE
  8
0
 62
     0
 10
84.2038
 20
54.671
 30
0.0
 11
84.0123
 21
54.2932
 31
0.0
  0
LINE
  8
0
 62
     0
 10
84.0123
 20
54.2932
 30
0.0
 11
83.9459
 21
53.8773
 31
0.0
  0
LINE
  8
0
 62
     0
 10
83.9459
 20
53.8773
 30
0.0
 11
84.0123
 21
53.4596
 31
0.0
  0
LINE
  8
0
 62
     0
 10
84.0123
 20
53.4596
 30
0.0
 11
84.2038
 21
53.0835
 31
0.0
  0
LINE
  8
0
 62
     0
 10
84.2038
 20
53.0835
 30
0.0
 11
84.5026
 21
52.7844
 31
0.0
  0
LINE
  8
0
 62
     0
 10
84.5026
 20
52.7844
 30
0.0
 11
84.879
 21
52.5928
 31
0.0
  0
LINE
  8
0
 62
     0
 10
84.879
 20
52.5928
 30
0.0
 11
85.2964
 21
52.5268
 31
0.0
  0
LINE
  8
0
 62
     0
 10
85.2964
 20
52.5268
 30
0.0
 11
85.7141
 21
52.5928
 31
0.0
  0
LINE
  8
0
 62
     0
 10
85.7141
 20
52.5928
 30
0.0
 11
86.0887
 21
52.7844
 31
0.0
  0
LINE
  8
0
 62
     0
 10
86.0887
 20
52.7844
 30
0.0
 11
86.3879
 21
53.0835
 31
0.0
  0
LINE
  8
0
 62
     0
 10
86.3879
 20
53.0835
 30
0.0
 11
86.5794
 21
53.4596
 31
0.0
  0
LINE
  8
0
 62
     0
 10
86.5794
 20
53.4596
 30
0.0
 11
86.6468
 21
53.8773
 31
0.0
  0
LINE
  8
0
 62
     0
 10
86.6468
 20
53.8773
 30
0.0
 11
86.5794
 21
54.2932
 31
0.0
  0
LINE
  8
0
 62
     0
 10
86.5794
 20
54.2932
 30
0.0
 11
86.3879
 21
54.671
 31
0.0
  0
LINE
  8
0
 62
     0
 10
86.3879
 20
54.671
 30
0.0
 11
86.0887
 21
54.9684
 31
0.0
  0
LINE
  8
0
 62
     0
 10
86.0887
 20
54.9684
 30
0.0
 11
85.7141
 21
55.16
 31
0.0
  0
LINE
  8
0
 62
     0
 10
85.7141
 20
55.16
 30
0.0
 11
85.2964
 21
55.2263
 31
0.0
  0
LINE
  8
0
 62
     0
 10
85.2964
 20
55.2263
 30
0.0
 11
84.879
 21
55.16
 31
0.0
  0
LINE
  8
0
 62
     0
 10
2.67753
 20
105.785
 30
0.0
 11
2.30132
 21
105.595
 31
0.0
  0
LINE
  8
0
 62
     0
 10
2.30132
 20
105.595
 30
0.0
 11
2.00229
 21
105.296
 31
0.0
  0
LINE
  8
0
 62
     0
 10
2.00229
 20
105.296
 30
0.0
 11
1.81212
 21
104.92
 31
0.0
  0
LINE
  8
0
 62
     0
 10
1.81212
 20
104.92
 30
0.0
 11
1.7446
 21
104.502
 31
0.0
  0
LINE
  8
0
 62
     0
 10
1.7446
 20
104.502
 30
0.0
 11
1.81212
 21
104.085
 31
0.0
  0
LINE
  8
0
 62
     0
 10
1.81212
 20
104.085
 30
0.0
 11
2.00229
 21
103.709
 31
0.0
  0
LINE
  8
0
 62
     0
 10
2.00229
 20
103.709
 30
0.0
 11
2.30132
 21
103.409
 31
0.0
  0
LINE
  8
0
 62
     0
 10
2.30132
 20
103.409
 30
0.0
 11
2.67753
 21
103.219
 31
0.0
  0
LINE
  8
0
 62
     0
 10
2.67753
 20
103.219
 30
0.0
 11
3.09507
 21
103.152
 31
0.0
  0
LINE
  8
0
 62
     0
 10
3.09507
 20
103.152
 30
0.0
 11
3.51262
 21
103.219
 31
0.0
  0
LINE
  8
0
 62
     0
 10
3.51262
 20
103.219
 30
0.0
 11
3.88881
 21
103.409
 31
0.0
  0
LINE
  8
0
 62
     0
 10
3.88881
 20
103.409
 30
0.0
 11
4.18786
 21
103.709
 31
0.0
  0
LINE
  8
0
 62
     0
 10
4.18786
 20
103.709
 30
0.0
 11
4.37804
 21
104.085
 31
0.0
  0
LINE
  8
0
 62
     0
 10
4.37804
 20
104.085
 30
0.0
 11
4.44419
 21
104.502
 31
0.0
  0
LINE
  8
0
 62
     0
 10
4.44419
 20
104.502
 30
0.0
 11
4.37804
 21
104.92
 31
0.0
  0
LINE
  8
0
 62
     0
 10
4.37804
 20
104.92
 30
0.0
 11
4.18786
 21
105.296
 31
0.0
  0
LINE
  8
0
 62
     0
 10
4.18786
 20
105.296
 30
0.0
 11
3.88881
 21
105.595
 31
0.0
  0
LINE
  8
0
 62
     0
 10
3.88881
 20
105.595
 30
0.0
 11
3.51262
 21
105.785
 31
0.0
  0
LINE
  8
0
 62
     0
 10
3.51262
 20
105.785
 30
0.0
 11
3.09507
 21
105.851
 31
0.0
  0
LINE
  8
0
 62
     0
 10
3.09507
 20
105.851
 30
0.0
 11
2.67753
 21
105.785
 31
0.0
  0
LINE
  8
0
 62
     0
 10
84.879
 20
105.785
 30
0.0
 11
84.5026
 21
105.595
 31
0.0
  0
LINE
  8
0
 62
     0
 10
84.5026
 20
105.595
 30
0.0
 11
84.2038
 21
105.296
 31
0.0
  0
LINE
  8
0
 62
     0
 10
84.2038
 20
105.296
 30
0.0
 11
84.0123
 21
104.92
 31
0.0
  0
LINE
  8
0
 62
     0
 10
84.0123
 20
104.92
 30
0.0
 11
83.9459
 21
104.502
 31
0.0
  0
LINE
  8
0
 62
     0
 10
83.9459
 20
104.502
 30
0.0
 11
84.0123
 21
104.085
 31
0.0
  0
LINE
  8
0
 62
     0
 10
84.0123
 20
104.085
 30
0.0
 11
84.2038
 21
103.709
 31
0.0
  0
LINE
  8
0
 62
     0
 10
84.2038
 20
103.709
 30
0.0
 11
84.5026
 21
103.409
 31
0.0
  0
LINE
  8
0
 62
     0
 10
84.5026
 20
103.409
 30
0.0
 11
84.879
 21
103.219
 31
0.0
  0
LINE
  8
0
 62
     0
 10
84.879
 20
103.219
 30
0.0
 11
85.2964
 21
103.152
 31
0.0
  0
LINE
  8
0
 62
     0
 10
85.2964
 20
103.152
 30
0.0
 11
85.7141
 21
103.219
 31
0.0
  0
LINE
  8
0
 62
     0
 10
85.7141
 20
103.219
 30
0.0
 11
86.0887
 21
103.409
 31
0.0
  0
LINE
  8
0
 62
     0
 10
86.0887
 20
103.409
 30
0.0
 11
86.3879
 21
103.709
 31
0.0
  0
LINE
  8
0
 62
     0
 10
86.3879
 20
103.709
 30
0.0
 11
86.5794
 21
104.085
 31
0.0
  0
LINE
  8
0
 62
     0
 10
86.5794
 20
104.085
 30
0.0
 11
86.6468
 21
104.502
 31
0.0
  0
LINE
  8
0
 62
     0
 10
86.6468
 20
104.502
 30
0.0
 11
86.5794
 21
104.92
 31
0.0
  0
LINE
  8
0
 62
     0
 10
86.5794
 20
104.92
 30
0.0
 11
86.3879
 21
105.296
 31
0.0
  0
LINE
  8
0
 62
     0
 10
86.3879
 20
105.296
 30
0.0
 11
86.0887
 21
105.595
 31
0.0
  0
LINE
  8
0
 62
     0
 10
86.0887
 20
105.595
 30
0.0
 11
85.7141
 21
105.785
 31
0.0
  0
LINE
  8
0
 62
     0
 10
85.7141
 20
105.785
 30
0.0
 11
85.2964
 21
105.851
 31
0.0
  0
LINE
  8
0
 62
     0
 10
85.2964
 20
105.851
 30
0.0
 11
84.879
 21
105.785
 31
0.0
  0
ENDSEC
  0
EOF
