  0
SECTION
  2
HEADER
  9
$ACADVER
  1
AC1009
  9
$EXTMIN
 10
0.0
 20
0.0
 30
0.0
  9
$EXTMAX
 10
1000.0
 20
1000.0
 30
0.0
  9
$FILLMODE
 70
 0
  9
$SPLFRAME
 70
 1
  0
ENDSEC
  0
SECTION
  2
TABLES
  0
TABLE
  2
LAYER
 70
1
  0
LAYER
  2
0
 70
     0
 62
     7
  6
CONTINUOUS
  0
ENDTAB
  0
ENDSEC
  0
SECTION
  2
ENTITIES
  0
LINE
  8
0
 62
     0
 10
85.2964
 20
107.502
 30
0.0
 11
85.532
 21
107.492
 31
0.0
  0
LINE
  8
0
 62
     0
 10
85.532
 20
107.492
 30
0.0
 11
85.7649
 21
107.466
 31
0.0
  0
LINE
  8
0
 62
     0
 10
85.7649
 20
107.466
 30
0.0
 11
85.9966
 21
107.419
 31
0.0
  0
LINE
  8
0
 62
     0
 10
85.9966
 20
107.419
 30
0.0
 11
86.2238
 21
107.356
 31
0.0
  0
LINE
  8
0
 62
     0
 10
86.2238
 20
107.356
 30
0.0
 11
86.4443
 21
107.273
 31
0.0
  0
LINE
  8
0
 62
     0
 10
86.4443
 20
107.273
 30
0.0
 11
86.6581
 21
107.176
 31
0.0
  0
LINE
  8
0
 62
     0
 10
86.6581
 20
107.176
 30
0.0
 11
86.8634
 21
107.06
 31
0.0
  0
LINE
  8
0
 62
     0
 10
86.8634
 20
107.06
 30
0.0
 11
87.0589
 21
106.93
 31
0.0
  0
LINE
  8
0
 62
     0
 10
87.0589
 20
106.93
 30
0.0
 11
87.2451
 21
106.784
 31
0.0
  0
LINE
  8
0
 62
     0
 10
87.2451
 20
106.784
 30
0.0
 11
87.4173
 21
106.624
 31
0.0
  0
LINE
  8
0
 62
     0
 10
87.4173
 20
106.624
 30
0.0
 11
87.5771
 21
106.451
 31
0.0
  0
LINE
  8
0
 62
     0
 10
87.5771
 20
106.451
 30
0.0
 11
87.7231
 21
106.266
 31
0.0
  0
LINE
  8
0
 62
     0
 10
87.7231
 20
106.266
 30
0.0
 11
87.854
 21
106.07
 31
0.0
  0
LINE
  8
0
 62
     0
 10
87.854
 20
106.07
 30
0.0
 11
87.9697
 21
105.864
 31
0.0
  0
LINE
  8
0
 62
     0
 10
87.9697
 20
105.864
 30
0.0
 11
88.0678
 21
105.65
 31
0.0
  0
LINE
  8
0
 62
     0
 10
88.0678
 20
105.65
 30
0.0
 11
88.1489
 21
105.429
 31
0.0
  0
LINE
  8
0
 62
     0
 10
88.1489
 20
105.429
 30
0.0
 11
88.2138
 21
105.202
 31
0.0
  0
LINE
  8
0
 62
     0
 10
88.2138
 20
105.202
 30
0.0
 11
88.2594
 21
104.972
 31
0.0
  0
LINE
  8
0
 62
     0
 10
88.2594
 20
104.972
 30
0.0
 11
88.2869
 21
104.738
 31
0.0
  0
LINE
  8
0
 62
     0
 10
88.2869
 20
104.738
 30
0.0
 11
88.2964
 21
104.502
 31
0.0
  0
LINE
  8
0
 62
     0
 10
88.2964
 20
104.502
 30
0.0
 11
88.2964
 21
3.25079
 31
0.0
  0
LINE
  8
0
 62
     0
 10
88.2964
 20
3.25079
 30
0.0
 11
88.2869
 21
3.01515
 31
0.0
  0
LINE
  8
0
 62
     0
 10
88.2869
 20
3.01515
 30
0.0
 11
88.2594
 21
2.78226
 31
0.0
  0
LINE
  8
0
 62
     0
 10
88.2594
 20
2.78226
 30
0.0
 11
88.2138
 21
2.55075
 31
0.0
  0
LINE
  8
0
 62
     0
 10
88.2138
 20
2.55075
 30
0.0
 11
88.1489
 21
2.32337
 31
0.0
  0
LINE
  8
0
 62
     0
 10
88.1489
 20
2.32337
 30
0.0
 11
88.0678
 21
2.10289
 31
0.0
  0
LINE
  8
0
 62
     0
 10
88.0678
 20
2.10289
 30
0.0
 11
87.9697
 21
1.88929
 31
0.0
  0
LINE
  8
0
 62
     0
 10
87.9697
 20
1.88929
 30
0.0
 11
87.854
 21
1.68396
 31
0.0
  0
LINE
  8
0
 62
     0
 10
87.854
 20
1.68396
 30
0.0
 11
87.7231
 21
1.48828
 31
0.0
  0
LINE
  8
0
 62
     0
 10
87.7231
 20
1.48828
 30
0.0
 11
87.5771
 21
1.30225
 31
0.0
  0
LINE
  8
0
 62
     0
 10
87.5771
 20
1.30225
 30
0.0
 11
87.4173
 21
1.12999
 31
0.0
  0
LINE
  8
0
 62
     0
 10
87.4173
 20
1.12999
 30
0.0
 11
87.2451
 21
0.970139
 31
0.0
  0
LINE
  8
0
 62
     0
 10
87.2451
 20
0.970139
 30
0.0
 11
87.0589
 21
0.824068
 31
0.0
  0
LINE
  8
0
 62
     0
 10
87.0589
 20
0.824068
 30
0.0
 11
86.8634
 21
0.693152
 31
0.0
  0
LINE
  8
0
 62
     0
 10
86.8634
 20
0.693152
 30
0.0
 11
86.6581
 21
0.577398
 31
0.0
  0
LINE
  8
0
 62
     0
 10
86.6581
 20
0.577398
 30
0.0
 11
86.4443
 21
0.479559
 31
0.0
  0
LINE
  8
0
 62
     0
 10
86.4443
 20
0.479559
 30
0.0
 11
86.2238
 21
0.398254
 31
0.0
  0
LINE
  8
0
 62
     0
 10
86.2238
 20
0.398254
 30
0.0
 11
85.9966
 21
0.333485
 31
0.0
  0
LINE
  8
0
 62
     0
 10
85.9966
 20
0.333485
 30
0.0
 11
85.7649
 21
0.28801
 31
0.0
  0
LINE
  8
0
 62
     0
 10
85.7649
 20
0.28801
 30
0.0
 11
85.532
 21
0.260449
 31
0.0
  0
LINE
  8
0
 62
     0
 10
85.532
 20
0.260449
 30
0.0
 11
85.295
 21
0.250803
 31
0.0
  0
LINE
  8
0
 62
     0
 10
85.295
 20
0.250803
 30
0.0
 11
3.09507
 21
0.250803
 31
0.0
  0
LINE
  8
0
 62
     0
 10
3.09507
 20
0.250803
 30
0.0
 11
2.85943
 21
0.260449
 31
0.0
  0
LINE
  8
0
 62
     0
 10
2.85943
 20
0.260449
 30
0.0
 11
2.62516
 21
0.28801
 31
0.0
  0
LINE
  8
0
 62
     0
 10
2.62516
 20
0.28801
 30
0.0
 11
2.39503
 21
0.333485
 31
0.0
  0
LINE
  8
0
 62
     0
 10
2.39503
 20
0.333485
 30
0.0
 11
2.16765
 21
0.398254
 31
0.0
  0
LINE
  8
0
 62
     0
 10
2.16765
 20
0.398254
 30
0.0
 11
1.94717
 21
0.479559
 31
0.0
  0
LINE
  8
0
 62
     0
 10
1.94717
 20
0.479559
 30
0.0
 11
1.73357
 21
0.577398
 31
0.0
  0
LINE
  8
0
 62
     0
 10
1.73357
 20
0.577398
 30
0.0
 11
1.52687
 21
0.693152
 31
0.0
  0
LINE
  8
0
 62
     0
 10
1.52687
 20
0.693152
 30
0.0
 11
1.33119
 21
0.824068
 31
0.0
  0
LINE
  8
0
 62
     0
 10
1.33119
 20
0.824068
 30
0.0
 11
1.14653
 21
0.970139
 31
0.0
  0
LINE
  8
0
 62
     0
 10
1.14653
 20
0.970139
 30
0.0
 11
0.972894
 21
1.12999
 31
0.0
  0
LINE
  8
0
 62
     0
 10
0.972894
 20
1.12999
 30
0.0
 11
0.813043
 21
1.30225
 31
0.0
  0
LINE
  8
0
 62
     0
 10
0.813043
 20
1.30225
 30
0.0
 11
0.666972
 21
1.48828
 31
0.0
  0
LINE
  8
0
 62
     0
 10
0.666972
 20
1.48828
 30
0.0
 11
0.537436
 21
1.68396
 31
0.0
  0
LINE
  8
0
 62
     0
 10
0.537436
 20
1.68396
 30
0.0
 11
0.421679
 21
1.88929
 31
0.0
  0
LINE
  8
0
 62
     0
 10
0.421679
 20
1.88929
 30
0.0
 11
0.323839
 21
2.10289
 31
0.0
  0
LINE
  8
0
 62
     0
 10
0.323839
 20
2.10289
 30
0.0
 11
0.241157
 21
2.32337
 31
0.0
  0
LINE
  8
0
 62
     0
 10
0.241157
 20
2.32337
 30
0.0
 11
0.177767
 21
2.55075
 31
0.0
  0
LINE
  8
0
 62
     0
 10
0.177767
 20
2.55075
 30
0.0
 11
0.130914
 21
2.78226
 31
0.0
  0
LINE
  8
0
 62
     0
 10
0.130914
 20
2.78226
 30
0.0
 11
0.104731
 21
3.01515
 31
0.0
  0
LINE
  8
0
 62
     0
 10
0.104731
 20
3.01515
 30
0.0
 11
0.0950846
 21
3.25079
 31
0.0
  0
LINE
  8
0
 62
     0
 10
0.0950846
 20
3.25079
 30
0.0
 11
0.0950846
 21
104.502
 31
0.0
  0
LINE
  8
0
 62
     0
 10
0.0950846
 20
104.502
 30
0.0
 11
0.104731
 21
104.738
 31
0.0
  0
LINE
  8
0
 62
     0
 10
0.104731
 20
104.738
 30
0.0
 11
0.130914
 21
104.972
 31
0.0
  0
LINE
  8
0
 62
     0
 10
0.130914
 20
104.972
 30
0.0
 11
0.177767
 21
105.202
 31
0.0
  0
LINE
  8
0
 62
     0
 10
0.177767
 20
105.202
 30
0.0
 11
0.241157
 21
105.429
 31
0.0
  0
LINE
  8
0
 62
     0
 10
0.241157
 20
105.429
 30
0.0
 11
0.323839
 21
105.65
 31
0.0
  0
LINE
  8
0
 62
     0
 10
0.323839
 20
105.65
 30
0.0
 11
0.421679
 21
105.864
 31
0.0
  0
LINE
  8
0
 62
     0
 10
0.421679
 20
105.864
 30
0.0
 11
0.537436
 21
106.07
 31
0.0
  0
LINE
  8
0
 62
     0
 10
0.537436
 20
106.07
 30
0.0
 11
0.666972
 21
106.266
 31
0.0
  0
LINE
  8
0
 62
     0
 10
0.666972
 20
106.266
 30
0.0
 11
0.813043
 21
106.451
 31
0.0
  0
LINE
  8
0
 62
     0
 10
0.813043
 20
106.451
 30
0.0
 11
0.972894
 21
106.624
 31
0.0
  0
LINE
  8
0
 62
     0
 10
0.972894
 20
106.624
 30
0.0
 11
1.14653
 21
106.784
 31
0.0
  0
LINE
  8
0
 62
     0
 10
1.14653
 20
106.784
 30
0.0
 11
1.33119
 21
106.93
 31
0.0
  0
LINE
  8
0
 62
     0
 10
1.33119
 20
106.93
 30
0.0
 11
1.52687
 21
107.06
 31
0.0
  0
LINE
  8
0
 62
     0
 10
1.52687
 20
107.06
 30
0.0
 11
1.73357
 21
107.176
 31
0.0
  0
LINE
  8
0
 62
     0
 10
1.73357
 20
107.176
 30
0.0
 11
1.94717
 21
107.273
 31
0.0
  0
LINE
  8
0
 62
     0
 10
1.94717
 20
107.273
 30
0.0
 11
2.16765
 21
107.356
 31
0.0
  0
LINE
  8
0
 62
     0
 10
2.16765
 20
107.356
 30
0.0
 11
2.39503
 21
107.419
 31
0.0
  0
LINE
  8
0
 62
     0
 10
2.39503
 20
107.419
 30
0.0
 11
2.62516
 21
107.466
 31
0.0
  0
LINE
  8
0
 62
     0
 10
2.62516
 20
107.466
 30
0.0
 11
2.85943
 21
107.492
 31
0.0
  0
LINE
  8
0
 62
     0
 10
2.85943
 20
107.492
 30
0.0
 11
3.09507
 21
107.502
 31
0.0
  0
LINE
  8
0
 62
     0
 10
3.09507
 20
107.502
 30
0.0
 11
85.2964
 21
107.502
 31
0.0
  0
LINE
  8
0
 62
     0
 10
2.67753
 20
4.53513
 30
0.0
 11
2.30132
 21
4.34358
 31
0.0
  0
LINE
  8
0
 62
     0
 10
2.30132
 20
4.34358
 30
0.0
 11
2.00229
 21
4.04453
 31
0.0
  0
LINE
  8
0
 62
     0
 10
2.00229
 20
4.04453
 30
0.0
 11
1.81212
 21
3.66832
 31
0.0
  0
LINE
  8
0
 62
     0
 10
1.81212
 20
3.66832
 30
0.0
 11
1.7446
 21
3.25079
 31
0.0
  0
LINE
  8
0
 62
     0
 10
1.7446
 20
3.25079
 30
0.0
 11
1.81212
 21
2.83325
 31
0.0
  0
LINE
  8
0
 62
     0
 10
1.81212
 20
2.83325
 30
0.0
 11
2.00229
 21
2.45842
 31
0.0
  0
LINE
  8
0
 62
     0
 10
2.00229
 20
2.45842
 30
0.0
 11
2.30132
 21
2.15938
 31
0.0
  0
LINE
  8
0
 62
     0
 10
2.30132
 20
2.15938
 30
0.0
 11
2.67753
 21
1.96784
 31
0.0
  0
LINE
  8
0
 62
     0
 10
2.67753
 20
1.96784
 30
0.0
 11
3.09507
 21
1.90032
 31
0.0
  0
LINE
  8
0
 62
     0
 10
3.09507
 20
1.90032
 30
0.0
 11
3.51262
 21
1.96784
 31
0.0
  0
LINE
  8
0
 62
     0
 10
3.51262
 20
1.96784
 30
0.0
 11
3.88881
 21
2.15938
 31
0.0
  0
LINE
  8
0
 62
     0
 10
3.88881
 20
2.15938
 30
0.0
 11
4.18786
 21
2.45842
 31
0.0
  0
LINE
  8
0
 62
     0
 10
4.18786
 20
2.45842
 30
0.0
 11
4.37804
 21
2.83325
 31
0.0
  0
LINE
  8
0
 62
     0
 10
4.37804
 20
2.83325
 30
0.0
 11
4.44419
 21
3.25079
 31
0.0
  0
LINE
  8
0
 62
     0
 10
4.44419
 20
3.25079
 30
0.0
 11
4.37804
 21
3.66832
 31
0.0
  0
LINE
  8
0
 62
     0
 10
4.37804
 20
3.66832
 30
0.0
 11
4.18786
 21
4.04453
 31
0.0
  0
LINE
  8
0
 62
     0
 10
4.18786
 20
4.04453
 30
0.0
 11
3.88881
 21
4.34358
 31
0.0
  0
LINE
  8
0
 62
     0
 10
3.88881
 20
4.34358
 30
0.0
 11
3.51262
 21
4.53513
 31
0.0
  0
LINE
  8
0
 62
     0
 10
3.51262
 20
4.53513
 30
0.0
 11
3.09507
 21
4.60128
 31
0.0
  0
LINE
  8
0
 62
     0
 10
3.09507
 20
4.60128
 30
0.0
 11
2.67753
 21
4.53513
 31
0.0
  0
LINE
  8
0
 62
     0
 10
84.879
 20
4.53513
 30
0.0
 11
84.5026
 21
4.34358
 31
0.0
  0
LINE
  8
0
 62
     0
 10
84.5026
 20
4.34358
 30
0.0
 11
84.2038
 21
4.04453
 31
0.0
  0
LINE
  8
0
 62
     0
 10
84.2038
 20
4.04453
 30
0.0
 11
84.0123
 21
3.66832
 31
0.0
  0
LINE
  8
0
 62
     0
 10
84.0123
 20
3.66832
 30
0.0
 11
83.9459
 21
3.25079
 31
0.0
  0
LINE
  8
0
 62
     0
 10
83.9459
 20
3.25079
 30
0.0
 11
84.0123
 21
2.83325
 31
0.0
  0
LINE
  8
0
 62
     0
 10
84.0123
 20
2.83325
 30
0.0
 11
84.2038
 21
2.45842
 31
0.0
  0
LINE
  8
0
 62
     0
 10
84.2038
 20
2.45842
 30
0.0
 11
84.5026
 21
2.15938
 31
0.0
  0
LINE
  8
0
 62
     0
 10
84.5026
 20
2.15938
 30
0.0
 11
84.879
 21
1.96784
 31
0.0
  0
LINE
  8
0
 62
     0
 10
84.879
 20
1.96784
 30
0.0
 11
85.2964
 21
1.90032
 31
0.0
  0
LINE
  8
0
 62
     0
 10
85.2964
 20
1.90032
 30
0.0
 11
85.7141
 21
1.96784
 31
0.0
  0
LINE
  8
0
 62
     0
 10
85.7141
 20
1.96784
 30
0.0
 11
86.0887
 21
2.15938
 31
0.0
  0
LINE
  8
0
 62
     0
 10
86.0887
 20
2.15938
 30
0.0
 11
86.3879
 21
2.45842
 31
0.0
  0
LINE
  8
0
 62
     0
 10
86.3879
 20
2.45842
 30
0.0
 11
86.5794
 21
2.83325
 31
0.0
  0
LINE
  8
0
 62
     0
 10
86.5794
 20
2.83325
 30
0.0
 11
86.6468
 21
3.25079
 31
0.0
  0
LINE
  8
0
 62
     0
 10
86.6468
 20
3.25079
 30
0.0
 11
86.5794
 21
3.66832
 31
0.0
  0
LINE
  8
0
 62
     0
 10
86.5794
 20
3.66832
 30
0.0
 11
86.3879
 21
4.04453
 31
0.0
  0
LINE
  8
0
 62
     0
 10
86.3879
 20
4.04453
 30
0.0
 11
86.0887
 21
4.34358
 31
0.0
  0
LINE
  8
0
 62
     0
 10
86.0887
 20
4.34358
 30
0.0
 11
85.7141
 21
4.53513
 31
0.0
  0
LINE
  8
0
 62
     0
 10
85.7141
 20
4.53513
 30
0.0
 11
85.2964
 21
4.60128
 31
0.0
  0
LINE
  8
0
 62
     0
 10
85.2964
 20
4.60128
 30
0.0
 11
84.879
 21
4.53513
 31
0.0
  0
LINE
  8
0
 62
     0
 10
18.146
 20
22.7762
 30
0.0
 11
18.146
 21
18.0771
 31
0.0
  0
LINE
  8
0
 62
     0
 10
18.146
 20
18.0771
 30
0.0
 11
16.6205
 21
18.0771
 31
0.0
  0
LINE
  8
0
 62
     0
 10
16.6205
 20
18.0771
 30
0.0
 11
16.6205
 21
21.3072
 31
0.0
  0
LINE
  8
0
 62
     0
 10
16.6205
 20
21.3072
 30
0.0
 11
9.8709
 21
21.3072
 31
0.0
  0
LINE
  8
0
 62
     0
 10
9.8709
 20
21.3072
 30
0.0
 11
9.8709
 21
18.0771
 31
0.0
  0
LINE
  8
0
 62
     0
 10
9.8709
 20
18.0771
 30
0.0
 11
9.04543
 21
18.0771
 31
0.0
  0
LINE
  8
0
 62
     0
 10
9.04543
 20
18.0771
 30
0.0
 11
9.04543
 21
15.2769
 31
0.0
  0
LINE
  8
0
 62
     0
 10
9.04543
 20
15.2769
 30
0.0
 11
9.8709
 21
15.2769
 31
0.0
  0
LINE
  8
0
 62
     0
 10
9.8709
 20
15.2769
 30
0.0
 11
9.8709
 21
9.00688
 31
0.0
  0
LINE
  8
0
 62
     0
 10
9.8709
 20
9.00688
 30
0.0
 11
11.5948
 21
9.00688
 31
0.0
  0
LINE
  8
0
 62
     0
 10
11.5948
 20
9.00688
 30
0.0
 11
11.5948
 21
7.80658
 31
0.0
  0
LINE
  8
0
 62
     0
 10
11.5948
 20
7.80658
 30
0.0
 11
14.8952
 21
7.80658
 31
0.0
  0
LINE
  8
0
 62
     0
 10
14.8952
 20
7.80658
 30
0.0
 11
14.8952
 21
9.00688
 31
0.0
  0
LINE
  8
0
 62
     0
 10
14.8952
 20
9.00688
 30
0.0
 11
16.6205
 21
9.00688
 31
0.0
  0
LINE
  8
0
 62
     0
 10
16.6205
 20
9.00688
 30
0.0
 11
16.6205
 21
13.4772
 31
0.0
  0
LINE
  8
0
 62
     0
 10
16.6205
 20
13.4772
 30
0.0
 11
18.146
 21
13.4772
 31
0.0
  0
LINE
  8
0
 62
     0
 10
18.146
 20
13.4772
 30
0.0
 11
18.146
 21
8.77672
 31
0.0
  0
LINE
  8
0
 62
     0
 10
18.146
 20
8.77672
 30
0.0
 11
32.1455
 21
8.77672
 31
0.0
  0
LINE
  8
0
 62
     0
 10
32.1455
 20
8.77672
 30
0.0
 11
32.1455
 21
13.4772
 31
0.0
  0
LINE
  8
0
 62
     0
 10
32.1455
 20
13.4772
 30
0.0
 11
33.671
 21
13.4772
 31
0.0
  0
LINE
  8
0
 62
     0
 10
33.671
 20
13.4772
 30
0.0
 11
33.671
 21
9.00688
 31
0.0
  0
LINE
  8
0
 62
     0
 10
33.671
 20
9.00688
 30
0.0
 11
35.3949
 21
9.00688
 31
0.0
  0
LINE
  8
0
 62
     0
 10
35.3949
 20
9.00688
 30
0.0
 11
35.3949
 21
7.80658
 31
0.0
  0
LINE
  8
0
 62
     0
 10
35.3949
 20
7.80658
 30
0.0
 11
38.6955
 21
7.80658
 31
0.0
  0
LINE
  8
0
 62
     0
 10
38.6955
 20
7.80658
 30
0.0
 11
38.6955
 21
9.00688
 31
0.0
  0
LINE
  8
0
 62
     0
 10
38.6955
 20
9.00688
 30
0.0
 11
40.4206
 21
9.00688
 31
0.0
  0
LINE
  8
0
 62
     0
 10
40.4206
 20
9.00688
 30
0.0
 11
40.4206
 21
15.2769
 31
0.0
  0
LINE
  8
0
 62
     0
 10
40.4206
 20
15.2769
 30
0.0
 11
41.2461
 21
15.2769
 31
0.0
  0
LINE
  8
0
 62
     0
 10
41.2461
 20
15.2769
 30
0.0
 11
41.2461
 21
18.0771
 31
0.0
  0
LINE
  8
0
 62
     0
 10
41.2461
 20
18.0771
 30
0.0
 11
40.4206
 21
18.0771
 31
0.0
  0
LINE
  8
0
 62
     0
 10
40.4206
 20
18.0771
 30
0.0
 11
40.4206
 21
21.3072
 31
0.0
  0
LINE
  8
0
 62
     0
 10
40.4206
 20
21.3072
 30
0.0
 11
33.671
 21
21.3072
 31
0.0
  0
LINE
  8
0
 62
     0
 10
33.671
 20
21.3072
 30
0.0
 11
33.671
 21
18.0771
 31
0.0
  0
LINE
  8
0
 62
     0
 10
33.671
 20
18.0771
 30
0.0
 11
32.1455
 21
18.0771
 31
0.0
  0
LINE
  8
0
 62
     0
 10
32.1455
 20
18.0771
 30
0.0
 11
32.1455
 21
22.7762
 31
0.0
  0
LINE
  8
0
 62
     0
 10
32.1455
 20
22.7762
 30
0.0
 11
18.146
 21
22.7762
 31
0.0
  0
LINE
  8
0
 62
     0
 10
46.7212
 20
22.7762
 30
0.0
 11
60.7205
 21
22.7762
 31
0.0
  0
LINE
  8
0
 62
     0
 10
60.7205
 20
22.7762
 30
0.0
 11
60.7205
 21
8.77672
 31
0.0
  0
LINE
  8
0
 62
     0
 10
60.7205
 20
8.77672
 30
0.0
 11
46.7212
 21
8.77672
 31
0.0
  0
LINE
  8
0
 62
     0
 10
46.7212
 20
8.77672
 30
0.0
 11
46.7212
 21
22.7762
 31
0.0
  0
LINE
  8
0
 62
     0
 10
72.2697
 20
41.4016
 30
0.0
 11
72.2697
 21
40.5765
 31
0.0
  0
LINE
  8
0
 62
     0
 10
72.2697
 20
40.5765
 30
0.0
 11
66.0012
 21
40.5765
 31
0.0
  0
LINE
  8
0
 62
     0
 10
66.0012
 20
40.5765
 30
0.0
 11
66.0012
 21
38.8525
 31
0.0
  0
LINE
  8
0
 62
     0
 10
66.0012
 20
38.8525
 30
0.0
 11
64.801
 21
38.8525
 31
0.0
  0
LINE
  8
0
 62
     0
 10
64.801
 20
38.8525
 30
0.0
 11
64.801
 21
35.5519
 31
0.0
  0
LINE
  8
0
 62
     0
 10
64.801
 20
35.5519
 30
0.0
 11
66.0012
 21
35.5519
 31
0.0
  0
LINE
  8
0
 62
     0
 10
66.0012
 20
35.5519
 30
0.0
 11
66.0012
 21
33.8267
 31
0.0
  0
LINE
  8
0
 62
     0
 10
66.0012
 20
33.8267
 30
0.0
 11
70.4702
 21
33.8267
 31
0.0
  0
LINE
  8
0
 62
     0
 10
70.4702
 20
33.8267
 30
0.0
 11
70.4702
 21
32.3012
 31
0.0
  0
LINE
  8
0
 62
     0
 10
70.4702
 20
32.3012
 30
0.0
 11
65.7712
 21
32.3012
 31
0.0
  0
LINE
  8
0
 62
     0
 10
65.7712
 20
32.3012
 30
0.0
 11
65.7712
 21
18.3017
 31
0.0
  0
LINE
  8
0
 62
     0
 10
65.7712
 20
18.3017
 30
0.0
 11
70.4702
 21
18.3017
 31
0.0
  0
LINE
  8
0
 62
     0
 10
70.4702
 20
18.3017
 30
0.0
 11
70.4702
 21
16.7762
 31
0.0
  0
LINE
  8
0
 62
     0
 10
70.4702
 20
16.7762
 30
0.0
 11
66.0012
 21
16.7762
 31
0.0
  0
LINE
  8
0
 62
     0
 10
66.0012
 20
16.7762
 30
0.0
 11
66.0012
 21
15.0523
 31
0.0
  0
LINE
  8
0
 62
     0
 10
66.0012
 20
15.0523
 30
0.0
 11
64.801
 21
15.0523
 31
0.0
  0
LINE
  8
0
 62
     0
 10
64.801
 20
15.0523
 30
0.0
 11
64.801
 21
11.7519
 31
0.0
  0
LINE
  8
0
 62
     0
 10
64.801
 20
11.7519
 30
0.0
 11
66.0012
 21
11.7519
 31
0.0
  0
LINE
  8
0
 62
     0
 10
66.0012
 20
11.7519
 30
0.0
 11
66.0012
 21
10.0266
 31
0.0
  0
LINE
  8
0
 62
     0
 10
66.0012
 20
10.0266
 30
0.0
 11
72.2697
 21
10.0266
 31
0.0
  0
LINE
  8
0
 62
     0
 10
72.2697
 20
10.0266
 30
0.0
 11
72.2697
 21
9.20115
 31
0.0
  0
LINE
  8
0
 62
     0
 10
72.2697
 20
9.20115
 30
0.0
 11
75.0701
 21
9.20115
 31
0.0
  0
LINE
  8
0
 62
     0
 10
75.0701
 20
9.20115
 30
0.0
 11
75.0701
 21
10.0266
 31
0.0
  0
LINE
  8
0
 62
     0
 10
75.0701
 20
10.0266
 30
0.0
 11
78.3001
 21
10.0266
 31
0.0
  0
LINE
  8
0
 62
     0
 10
78.3001
 20
10.0266
 30
0.0
 11
78.3001
 21
16.7762
 31
0.0
  0
LINE
  8
0
 62
     0
 10
78.3001
 20
16.7762
 30
0.0
 11
75.0701
 21
16.7762
 31
0.0
  0
LINE
  8
0
 62
     0
 10
75.0701
 20
16.7762
 30
0.0
 11
75.0701
 21
18.3017
 31
0.0
  0
LINE
  8
0
 62
     0
 10
75.0701
 20
18.3017
 30
0.0
 11
79.7705
 21
18.3017
 31
0.0
  0
LINE
  8
0
 62
     0
 10
79.7705
 20
18.3017
 30
0.0
 11
79.7705
 21
32.3012
 31
0.0
  0
LINE
  8
0
 62
     0
 10
79.7705
 20
32.3012
 30
0.0
 11
75.0701
 21
32.3012
 31
0.0
  0
LINE
  8
0
 62
     0
 10
75.0701
 20
32.3012
 30
0.0
 11
75.0701
 21
33.8267
 31
0.0
  0
LINE
  8
0
 62
     0
 10
75.0701
 20
33.8267
 30
0.0
 11
78.3001
 21
33.8267
 31
0.0
  0
LINE
  8
0
 62
     0
 10
78.3001
 20
33.8267
 30
0.0
 11
78.3001
 21
40.5765
 31
0.0
  0
LINE
  8
0
 62
     0
 10
78.3001
 20
40.5765
 30
0.0
 11
75.0701
 21
40.5765
 31
0.0
  0
LINE
  8
0
 62
     0
 10
75.0701
 20
40.5765
 30
0.0
 11
75.0701
 21
41.4016
 31
0.0
  0
LINE
  8
0
 62
     0
 10
75.0701
 20
41.4016
 30
0.0
 11
72.2697
 21
41.4016
 31
0.0
  0
LINE
  8
0
 62
     0
 10
46.7212
 20
41.8264
 30
0.0
 11
60.7205
 21
41.8264
 31
0.0
  0
LINE
  8
0
 62
     0
 10
60.7205
 20
41.8264
 30
0.0
 11
60.7205
 21
27.8267
 31
0.0
  0
LINE
  8
0
 62
     0
 10
60.7205
 20
27.8267
 30
0.0
 11
46.7212
 21
27.8267
 31
0.0
  0
LINE
  8
0
 62
     0
 10
46.7212
 20
27.8267
 30
0.0
 11
46.7212
 21
41.8264
 31
0.0
  0
LINE
  8
0
 62
     0
 10
27.671
 20
41.8264
 30
0.0
 11
41.6705
 21
41.8264
 31
0.0
  0
LINE
  8
0
 62
     0
 10
41.6705
 20
41.8264
 30
0.0
 11
41.6705
 21
27.8267
 31
0.0
  0
LINE
  8
0
 62
     0
 10
41.6705
 20
27.8267
 30
0.0
 11
27.671
 21
27.8267
 31
0.0
  0
LINE
  8
0
 62
     0
 10
27.671
 20
27.8267
 30
0.0
 11
27.671
 21
41.8264
 31
0.0
  0
LINE
  8
0
 62
     0
 10
8.61963
 20
41.8264
 30
0.0
 11
22.6205
 21
41.8264
 31
0.0
  0
LINE
  8
0
 62
     0
 10
22.6205
 20
41.8264
 30
0.0
 11
22.6205
 21
27.8267
 31
0.0
  0
LINE
  8
0
 62
     0
 10
22.6205
 20
27.8267
 30
0.0
 11
8.61963
 21
27.8267
 31
0.0
  0
LINE
  8
0
 62
     0
 10
8.61963
 20
27.8267
 30
0.0
 11
8.61963
 21
41.8264
 31
0.0
  0
LINE
  8
0
 62
     0
 10
46.7212
 20
60.8764
 30
0.0
 11
60.7205
 21
60.8764
 31
0.0
  0
LINE
  8
0
 62
     0
 10
60.7205
 20
60.8764
 30
0.0
 11
60.7205
 21
46.8768
 31
0.0
  0
LINE
  8
0
 62
     0
 10
60.7205
 20
46.8768
 30
0.0
 11
46.7212
 21
46.8768
 31
0.0
  0
LINE
  8
0
 62
     0
 10
46.7212
 20
46.8768
 30
0.0
 11
46.7212
 21
60.8764
 31
0.0
  0
LINE
  8
0
 62
     0
 10
27.671
 20
60.8764
 30
0.0
 11
41.6705
 21
60.8764
 31
0.0
  0
LINE
  8
0
 62
     0
 10
41.6705
 20
60.8764
 30
0.0
 11
41.6705
 21
46.8768
 31
0.0
  0
LINE
  8
0
 62
     0
 10
41.6705
 20
46.8768
 30
0.0
 11
27.671
 21
46.8768
 31
0.0
  0
LINE
  8
0
 62
     0
 10
27.671
 20
46.8768
 30
0.0
 11
27.671
 21
60.8764
 31
0.0
  0
LINE
  8
0
 62
     0
 10
8.61963
 20
60.8764
 30
0.0
 11
22.6205
 21
60.8764
 31
0.0
  0
LINE
  8
0
 62
     0
 10
22.6205
 20
60.8764
 30
0.0
 11
22.6205
 21
46.8768
 31
0.0
  0
LINE
  8
0
 62
     0
 10
22.6205
 20
46.8768
 30
0.0
 11
8.61963
 21
46.8768
 31
0.0
  0
LINE
  8
0
 62
     0
 10
8.61963
 20
46.8768
 30
0.0
 11
8.61963
 21
60.8764
 31
0.0
  0
LINE
  8
0
 62
     0
 10
72.2697
 20
79.5016
 30
0.0
 11
72.2697
 21
78.6765
 31
0.0
  0
LINE
  8
0
 62
     0
 10
72.2697
 20
78.6765
 30
0.0
 11
66.0012
 21
78.6765
 31
0.0
  0
LINE
  8
0
 62
     0
 10
66.0012
 20
78.6765
 30
0.0
 11
66.0012
 21
76.9525
 31
0.0
  0
LINE
  8
0
 62
     0
 10
66.0012
 20
76.9525
 30
0.0
 11
64.801
 21
76.9525
 31
0.0
  0
LINE
  8
0
 62
     0
 10
64.801
 20
76.9525
 30
0.0
 11
64.801
 21
73.6519
 31
0.0
  0
LINE
  8
0
 62
     0
 10
64.801
 20
73.6519
 30
0.0
 11
66.0012
 21
73.6519
 31
0.0
  0
LINE
  8
0
 62
     0
 10
66.0012
 20
73.6519
 30
0.0
 11
66.0012
 21
71.9268
 31
0.0
  0
LINE
  8
0
 62
     0
 10
66.0012
 20
71.9268
 30
0.0
 11
70.4702
 21
71.9268
 31
0.0
  0
LINE
  8
0
 62
     0
 10
70.4702
 20
71.9268
 30
0.0
 11
70.4702
 21
70.4014
 31
0.0
  0
LINE
  8
0
 62
     0
 10
70.4702
 20
70.4014
 30
0.0
 11
65.7712
 21
70.4014
 31
0.0
  0
LINE
  8
0
 62
     0
 10
65.7712
 20
70.4014
 30
0.0
 11
65.7712
 21
56.4018
 31
0.0
  0
LINE
  8
0
 62
     0
 10
65.7712
 20
56.4018
 30
0.0
 11
70.4702
 21
56.4018
 31
0.0
  0
LINE
  8
0
 62
     0
 10
70.4702
 20
56.4018
 30
0.0
 11
70.4702
 21
54.8763
 31
0.0
  0
LINE
  8
0
 62
     0
 10
70.4702
 20
54.8763
 30
0.0
 11
66.0012
 21
54.8763
 31
0.0
  0
LINE
  8
0
 62
     0
 10
66.0012
 20
54.8763
 30
0.0
 11
66.0012
 21
53.1523
 31
0.0
  0
LINE
  8
0
 62
     0
 10
66.0012
 20
53.1523
 30
0.0
 11
64.801
 21
53.1523
 31
0.0
  0
LINE
  8
0
 62
     0
 10
64.801
 20
53.1523
 30
0.0
 11
64.801
 21
49.8521
 31
0.0
  0
LINE
  8
0
 62
     0
 10
64.801
 20
49.8521
 30
0.0
 11
66.0012
 21
49.8521
 31
0.0
  0
LINE
  8
0
 62
     0
 10
66.0012
 20
49.8521
 30
0.0
 11
66.0012
 21
48.1266
 31
0.0
  0
LINE
  8
0
 62
     0
 10
66.0012
 20
48.1266
 30
0.0
 11
72.2697
 21
48.1266
 31
0.0
  0
LINE
  8
0
 62
     0
 10
72.2697
 20
48.1266
 30
0.0
 11
72.2697
 21
47.3012
 31
0.0
  0
LINE
  8
0
 62
     0
 10
72.2697
 20
47.3012
 30
0.0
 11
75.0701
 21
47.3012
 31
0.0
  0
LINE
  8
0
 62
     0
 10
75.0701
 20
47.3012
 30
0.0
 11
75.0701
 21
48.1266
 31
0.0
  0
LINE
  8
0
 62
     0
 10
75.0701
 20
48.1266
 30
0.0
 11
78.3001
 21
48.1266
 31
0.0
  0
LINE
  8
0
 62
     0
 10
78.3001
 20
48.1266
 30
0.0
 11
78.3001
 21
54.8763
 31
0.0
  0
LINE
  8
0
 62
     0
 10
78.3001
 20
54.8763
 30
0.0
 11
75.0701
 21
54.8763
 31
0.0
  0
LINE
  8
0
 62
     0
 10
75.0701
 20
54.8763
 30
0.0
 11
75.0701
 21
56.4018
 31
0.0
  0
LINE
  8
0
 62
     0
 10
75.0701
 20
56.4018
 30
0.0
 11
79.7705
 21
56.4018
 31
0.0
  0
LINE
  8
0
 62
     0
 10
79.7705
 20
56.4018
 30
0.0
 11
79.7705
 21
70.4014
 31
0.0
  0
LINE
  8
0
 62
     0
 10
79.7705
 20
70.4014
 30
0.0
 11
75.0701
 21
70.4014
 31
0.0
  0
LINE
  8
0
 62
     0
 10
75.0701
 20
70.4014
 30
0.0
 11
75.0701
 21
71.9268
 31
0.0
  0
LINE
  8
0
 62
     0
 10
75.0701
 20
71.9268
 30
0.0
 11
78.3001
 21
71.9268
 31
0.0
  0
LINE
  8
0
 62
     0
 10
78.3001
 20
71.9268
 30
0.0
 11
78.3001
 21
78.6765
 31
0.0
  0
LINE
  8
0
 62
     0
 10
78.3001
 20
78.6765
 30
0.0
 11
75.0701
 21
78.6765
 31
0.0
  0
LINE
  8
0
 62
     0
 10
75.0701
 20
78.6765
 30
0.0
 11
75.0701
 21
79.5016
 31
0.0
  0
LINE
  8
0
 62
     0
 10
75.0701
 20
79.5016
 30
0.0
 11
72.2697
 21
79.5016
 31
0.0
  0
LINE
  8
0
 62
     0
 10
2.67753
 20
55.16
 30
0.0
 11
2.30132
 21
54.9684
 31
0.0
  0
LINE
  8
0
 62
     0
 10
2.30132
 20
54.9684
 30
0.0
 11
2.00229
 21
54.671
 31
0.0
  0
LINE
  8
0
 62
     0
 10
2.00229
 20
54.671
 30
0.0
 11
1.81212
 21
54.2932
 31
0.0
  0
LINE
  8
0
 62
     0
 10
1.81212
 20
54.2932
 30
0.0
 11
1.7446
 21
53.8773
 31
0.0
  0
LINE
  8
0
 62
     0
 10
1.7446
 20
53.8773
 30
0.0
 11
1.81212
 21
53.4596
 31
0.0
  0
LINE
  8
0
 62
     0
 10
1.81212
 20
53.4596
 30
0.0
 11
2.00229
 21
53.0835
 31
0.0
  0
LINE
  8
0
 62
     0
 10
2.00229
 20
53.0835
 30
0.0
 11
2.30132
 21
52.7844
 31
0.0
  0
LINE
  8
0
 62
     0
 10
2.30132
 20
52.7844
 30
0.0
 11
2.67753
 21
52.5928
 31
0.0
  0
LINE
  8
0
 62
     0
 10
2.67753
 20
52.5928
 30
0.0
 11
3.09507
 21
52.5268
 31
0.0
  0
LINE
  8
0
 62
     0
 10
3.09507
 20
52.5268
 30
0.0
 11
3.51262
 21
52.5928
 31
0.0
  0
LINE
  8
0
 62
     0
 10
3.51262
 20
52.5928
 30
0.0
 11
3.88881
 21
52.7844
 31
0.0
  0
LINE
  8
0
 62
     0
 10
3.88881
 20
52.7844
 30
0.0
 11
4.18786
 21
53.0835
 31
0.0
  0
LINE
  8
0
 62
     0
 10
4.18786
 20
53.0835
 30
0.0
 11
4.37804
 21
53.4596
 31
0.0
  0
LINE
  8
0
 62
     0
 10
4.37804
 20
53.4596
 30
0.0
 11
4.44419
 21
53.8773
 31
0.0
  0
LINE
  8
0
 62
     0
 10
4.44419
 20
53.8773
 30
0.0
 11
4.37804
 21
54.2932
 31
0.0
  0
LINE
  8
0
 62
     0
 10
4.37804
 20
54.2932
 30
0.0
 11
4.18786
 21
54.671
 31
0.0
  0
LINE
  8
0
 62
     0
 10
4.18786
 20
54.671
 30
0.0
 11
3.88881
 21
54.9684
 31
0.0
  0
LINE
  8
0
 62
     0
 10
3.88881
 20
54.9684
 30
0.0
 11
3.51262
 21
55.16
 31
0.0
  0
LINE
  8
0
 62
     0
 10
3.51262
 20
55.16
 30
0.0
 11
3.09507
 21
55.2263
 31
0.0
  0
LINE
  8
0
 62
     0
 10
3.09507
 20
55.2263
 30
0.0
 11
2.67753
 21
55.16
 31
0.0
  0
LINE
  8
0
 62
     0
 10
84.879
 20
55.16
 30
0.0
 11
84.5026
 21
54.9684
 31
0.0
  0
LINE
  8
0
 62
     0
 10
84.5026
 20
54.9684
 30
0.0
 11
84.2038
 21
54.671
 31
0.0
  0
LINE
  8
0
 62
     0
 10
84.2038
 20
54.671
 30
0.0
 11
84.0123
 21
54.2932
 31
0.0
  0
LINE
  8
0
 62
     0
 10
84.0123
 20
54.2932
 30
0.0
 11
83.9459
 21
53.8773
 31
0.0
  0
LINE
  8
0
 62
     0
 10
83.9459
 20
53.8773
 30
0.0
 11
84.0123
 21
53.4596
 31
0.0
  0
LINE
  8
0
 62
     0
 10
84.0123
 20
53.4596
 30
0.0
 11
84.2038
 21
53.0835
 31
0.0
  0
LINE
  8
0
 62
     0
 10
84.2038
 20
53.0835
 30
0.0
 11
84.5026
 21
52.7844
 31
0.0
  0
LINE
  8
0
 62
     0
 10
84.5026
 20
52.7844
 30
0.0
 11
84.879
 21
52.5928
 31
0.0
  0
LINE
  8
0
 62
     0
 10
84.879
 20
52.5928
 30
0.0
 11
85.2964
 21
52.5268
 31
0.0
  0
LINE
  8
0
 62
     0
 10
85.2964
 20
52.5268
 30
0.0
 11
85.7141
 21
52.5928
 31
0.0
  0
LINE
  8
0
 62
     0
 10
85.7141
 20
52.5928
 30
0.0
 11
86.0887
 21
52.7844
 31
0.0
  0
LINE
  8
0
 62
     0
 10
86.0887
 20
52.7844
 30
0.0
 11
86.3879
 21
53.0835
 31
0.0
  0
LINE
  8
0
 62
     0
 10
86.3879
 20
53.0835
 30
0.0
 11
86.5794
 21
53.4596
 31
0.0
  0
LINE
  8
0
 62
     0
 10
86.5794
 20
53.4596
 30
0.0
 11
86.6468
 21
53.8773
 31
0.0
  0
LINE
  8
0
 62
     0
 10
86.6468
 20
53.8773
 30
0.0
 11
86.5794
 21
54.2932
 31
0.0
  0
LINE
  8
0
 62
     0
 10
86.5794
 20
54.2932
 30
0.0
 11
86.3879
 21
54.671
 31
0.0
  0
LINE
  8
0
 62
     0
 10
86.3879
 20
54.671
 30
0.0
 11
86.0887
 21
54.9684
 31
0.0
  0
LINE
  8
0
 62
     0
 10
86.0887
 20
54.9684
 30
0.0
 11
85.7141
 21
55.16
 31
0.0
  0
LINE
  8
0
 62
     0
 10
85.7141
 20
55.16
 30
0.0
 11
85.2964
 21
55.2263
 31
0.0
  0
LINE
  8
0
 62
     0
 10
85.2964
 20
55.2263
 30
0.0
 11
84.879
 21
55.16
 31
0.0
  0
LINE
  8
0
 62
     0
 10
46.7212
 20
79.9264
 30
0.0
 11
60.7205
 21
79.9264
 31
0.0
  0
LINE
  8
0
 62
     0
 10
60.7205
 20
79.9264
 30
0.0
 11
60.7205
 21
65.9268
 31
0.0
  0
LINE
  8
0
 62
     0
 10
60.7205
 20
65.9268
 30
0.0
 11
46.7212
 21
65.9268
 31
0.0
  0
LINE
  8
0
 62
     0
 10
46.7212
 20
65.9268
 30
0.0
 11
46.7212
 21
79.9264
 31
0.0
  0
LINE
  8
0
 62
     0
 10
27.671
 20
79.9264
 30
0.0
 11
41.6705
 21
79.9264
 31
0.0
  0
LINE
  8
0
 62
     0
 10
41.6705
 20
79.9264
 30
0.0
 11
41.6705
 21
65.9268
 31
0.0
  0
LINE
  8
0
 62
     0
 10
41.6705
 20
65.9268
 30
0.0
 11
27.671
 21
65.9268
 31
0.0
  0
LINE
  8
0
 62
     0
 10
27.671
 20
65.9268
 30
0.0
 11
27.671
 21
79.9264
 31
0.0
  0
LINE
  8
0
 62
     0
 10
8.61963
 20
79.9264
 30
0.0
 11
22.6205
 21
79.9264
 31
0.0
  0
LINE
  8
0
 62
     0
 10
22.6205
 20
79.9264
 30
0.0
 11
22.6205
 21
65.9268
 31
0.0
  0
LINE
  8
0
 62
     0
 10
22.6205
 20
65.9268
 30
0.0
 11
8.61963
 21
65.9268
 31
0.0
  0
LINE
  8
0
 62
     0
 10
8.61963
 20
65.9268
 30
0.0
 11
8.61963
 21
79.9264
 31
0.0
  0
LINE
  8
0
 62
     0
 10
65.7712
 20
98.9775
 30
0.0
 11
79.7705
 21
98.9775
 31
0.0
  0
LINE
  8
0
 62
     0
 10
79.7705
 20
98.9775
 30
0.0
 11
79.7705
 21
84.9768
 31
0.0
  0
LINE
  8
0
 62
     0
 10
79.7705
 20
84.9768
 30
0.0
 11
65.7712
 21
84.9768
 31
0.0
  0
LINE
  8
0
 62
     0
 10
65.7712
 20
84.9768
 30
0.0
 11
65.7712
 21
98.9775
 31
0.0
  0
LINE
  8
0
 62
     0
 10
46.7212
 20
98.9775
 30
0.0
 11
60.7205
 21
98.9775
 31
0.0
  0
LINE
  8
0
 62
     0
 10
60.7205
 20
98.9775
 30
0.0
 11
60.7205
 21
84.9768
 31
0.0
  0
LINE
  8
0
 62
     0
 10
60.7205
 20
84.9768
 30
0.0
 11
46.7212
 21
84.9768
 31
0.0
  0
LINE
  8
0
 62
     0
 10
46.7212
 20
84.9768
 30
0.0
 11
46.7212
 21
98.9775
 31
0.0
  0
LINE
  8
0
 62
     0
 10
27.671
 20
98.9775
 30
0.0
 11
41.6705
 21
98.9775
 31
0.0
  0
LINE
  8
0
 62
     0
 10
41.6705
 20
98.9775
 30
0.0
 11
41.6705
 21
84.9768
 31
0.0
  0
LINE
  8
0
 62
     0
 10
41.6705
 20
84.9768
 30
0.0
 11
27.671
 21
84.9768
 31
0.0
  0
LINE
  8
0
 62
     0
 10
27.671
 20
84.9768
 30
0.0
 11
27.671
 21
98.9775
 31
0.0
  0
LINE
  8
0
 62
     0
 10
8.61963
 20
98.9775
 30
0.0
 11
22.6205
 21
98.9775
 31
0.0
  0
LINE
  8
0
 62
     0
 10
22.6205
 20
98.9775
 30
0.0
 11
22.6205
 21
84.9768
 31
0.0
  0
LINE
  8
0
 62
     0
 10
22.6205
 20
84.9768
 30
0.0
 11
8.61963
 21
84.9768
 31
0.0
  0
LINE
  8
0
 62
     0
 10
8.61963
 20
84.9768
 30
0.0
 11
8.61963
 21
98.9775
 31
0.0
  0
LINE
  8
0
 62
     0
 10
2.67753
 20
105.785
 30
0.0
 11
2.30132
 21
105.595
 31
0.0
  0
LINE
  8
0
 62
     0
 10
2.30132
 20
105.595
 30
0.0
 11
2.00229
 21
105.296
 31
0.0
  0
LINE
  8
0
 62
     0
 10
2.00229
 20
105.296
 30
0.0
 11
1.81212
 21
104.92
 31
0.0
  0
LINE
  8
0
 62
     0
 10
1.81212
 20
104.92
 30
0.0
 11
1.7446
 21
104.502
 31
0.0
  0
LINE
  8
0
 62
     0
 10
1.7446
 20
104.502
 30
0.0
 11
1.81212
 21
104.085
 31
0.0
  0
LINE
  8
0
 62
     0
 10
1.81212
 20
104.085
 30
0.0
 11
2.00229
 21
103.709
 31
0.0
  0
LINE
  8
0
 62
     0
 10
2.00229
 20
103.709
 30
0.0
 11
2.30132
 21
103.409
 31
0.0
  0
LINE
  8
0
 62
     0
 10
2.30132
 20
103.409
 30
0.0
 11
2.67753
 21
103.219
 31
0.0
  0
LINE
  8
0
 62
     0
 10
2.67753
 20
103.219
 30
0.0
 11
3.09507
 21
103.152
 31
0.0
  0
LINE
  8
0
 62
     0
 10
3.09507
 20
103.152
 30
0.0
 11
3.51262
 21
103.219
 31
0.0
  0
LINE
  8
0
 62
     0
 10
3.51262
 20
103.219
 30
0.0
 11
3.88881
 21
103.409
 31
0.0
  0
LINE
  8
0
 62
     0
 10
3.88881
 20
103.409
 30
0.0
 11
4.18786
 21
103.709
 31
0.0
  0
LINE
  8
0
 62
     0
 10
4.18786
 20
103.709
 30
0.0
 11
4.37804
 21
104.085
 31
0.0
  0
LINE
  8
0
 62
     0
 10
4.37804
 20
104.085
 30
0.0
 11
4.44419
 21
104.502
 31
0.0
  0
LINE
  8
0
 62
     0
 10
4.44419
 20
104.502
 30
0.0
 11
4.37804
 21
104.92
 31
0.0
  0
LINE
  8
0
 62
     0
 10
4.37804
 20
104.92
 30
0.0
 11
4.18786
 21
105.296
 31
0.0
  0
LINE
  8
0
 62
     0
 10
4.18786
 20
105.296
 30
0.0
 11
3.88881
 21
105.595
 31
0.0
  0
LINE
  8
0
 62
     0
 10
3.88881
 20
105.595
 30
0.0
 11
3.51262
 21
105.785
 31
0.0
  0
LINE
  8
0
 62
     0
 10
3.51262
 20
105.785
 30
0.0
 11
3.09507
 21
105.851
 31
0.0
  0
LINE
  8
0
 62
     0
 10
3.09507
 20
105.851
 30
0.0
 11
2.67753
 21
105.785
 31
0.0
  0
LINE
  8
0
 62
     0
 10
84.879
 20
105.785
 30
0.0
 11
84.5026
 21
105.595
 31
0.0
  0
LINE
  8
0
 62
     0
 10
84.5026
 20
105.595
 30
0.0
 11
84.2038
 21
105.296
 31
0.0
  0
LINE
  8
0
 62
     0
 10
84.2038
 20
105.296
 30
0.0
 11
84.0123
 21
104.92
 31
0.0
  0
LINE
  8
0
 62
     0
 10
84.0123
 20
104.92
 30
0.0
 11
83.9459
 21
104.502
 31
0.0
  0
LINE
  8
0
 62
     0
 10
83.9459
 20
104.502
 30
0.0
 11
84.0123
 21
104.085
 31
0.0
  0
LINE
  8
0
 62
     0
 10
84.0123
 20
104.085
 30
0.0
 11
84.2038
 21
103.709
 31
0.0
  0
LINE
  8
0
 62
     0
 10
84.2038
 20
103.709
 30
0.0
 11
84.5026
 21
103.409
 31
0.0
  0
LINE
  8
0
 62
     0
 10
84.5026
 20
103.409
 30
0.0
 11
84.879
 21
103.219
 31
0.0
  0
LINE
  8
0
 62
     0
 10
84.879
 20
103.219
 30
0.0
 11
85.2964
 21
103.152
 31
0.0
  0
LINE
  8
0
 62
     0
 10
85.2964
 20
103.152
 30
0.0
 11
85.7141
 21
103.219
 31
0.0
  0
LINE
  8
0
 62
     0
 10
85.7141
 20
103.219
 30
0.0
 11
86.0887
 21
103.409
 31
0.0
  0
LINE
  8
0
 62
     0
 10
86.0887
 20
103.409
 30
0.0
 11
86.3879
 21
103.709
 31
0.0
  0
LINE
  8
0
 62
     0
 10
86.3879
 20
103.709
 30
0.0
 11
86.5794
 21
104.085
 31
0.0
  0
LINE
  8
0
 62
     0
 10
86.5794
 20
104.085
 30
0.0
 11
86.6468
 21
104.502
 31
0.0
  0
LINE
  8
0
 62
     0
 10
86.6468
 20
104.502
 30
0.0
 11
86.5794
 21
104.92
 31
0.0
  0
LINE
  8
0
 62
     0
 10
86.5794
 20
104.92
 30
0.0
 11
86.3879
 21
105.296
 31
0.0
  0
LINE
  8
0
 62
     0
 10
86.3879
 20
105.296
 30
0.0
 11
86.0887
 21
105.595
 31
0.0
  0
LINE
  8
0
 62
     0
 10
86.0887
 20
105.595
 30
0.0
 11
85.7141
 21
105.785
 31
0.0
  0
LINE
  8
0
 62
     0
 10
85.7141
 20
105.785
 30
0.0
 11
85.2964
 21
105.851
 31
0.0
  0
LINE
  8
0
 62
     0
 10
85.2964
 20
105.851
 30
0.0
 11
84.879
 21
105.785
 31
0.0
  0
ENDSEC
  0
EOF
